<svg viewBox="26.200000000000045 -13.076923076923038 995.5999999999997 732.3076923076924" fill="none" xmlns="http://www.w3.org/2000/svg" xmlns:xlink="http://www.w3.org/1999/xlink" xmlns:blush="http://design.blush" overflow="visible" width="995.5999999999997px" height="732.3076923076924px"><g id="Master/Scene/3 Characters" blush:has-customizable-colors="true" blush:viewBox="0 -1.0493827160493652 1053.2399999999998 682.0987654320987" blush:i="0"><g id="Background" blush:component="Background" blush:defaultValue="Wireframe" blush:width="1053" blush:height="680" blush:i="0.0" blush:value="Home" transform="scale(1 1)" blush:viewBox="36.85500000000002 -4.736842105263179 974.0250000000003 615.7894736842105"><g id="Background/Home" blush:viewBox="36.85500000000002 -4.736842105263179 974.0250000000003 615.7894736842105" blush:i="0.0.0"><g id="Clock" blush:i="0.0.0.0"><circle id="Clock Frame" cx="794" cy="138" r="53" fill="#F2F2F2" blush:i="0.0.0.0.0"/><circle id="Time" cx="794" cy="96" r="3" fill="black" fill-opacity="0.1" blush:i="0.0.0.0.1"/><circle id="Time_2" cx="752" cy="138" r="3" fill="black" fill-opacity="0.1" blush:i="0.0.0.0.2"/><circle id="Time_3" cx="836" cy="138" r="3" fill="black" fill-opacity="0.1" blush:i="0.0.0.0.3"/><circle id="Time_4" cx="794" cy="180" r="3" fill="black" fill-opacity="0.1" blush:i="0.0.0.0.4"/><path id="Hand" fill-rule="evenodd" clip-rule="evenodd" d="M794 102L796 137H792L794 102Z" fill="#AFB9C5" blush:i="0.0.0.0.5"/><path id="Hand_2" fill-rule="evenodd" clip-rule="evenodd" d="M811.698 155.698L793.314 140.142L796.142 137.314L811.698 155.698Z" fill="#AFB9C5" blush:i="0.0.0.0.6"/><circle id="Time_5" cx="794" cy="138" r="4" fill="#C5CFD6" blush:i="0.0.0.0.7"/></g><g id="Background Shape 2" opacity="0.345889" blush:i="0.0.0.1"><path id="Background Shape" fill-rule="evenodd" clip-rule="evenodd" d="M800.668 416.385C789.59 339.336 195.192 190.624 84.8443 263.603C-25.5036 336.582 80.5822 473.545 311.831 508.617C543.079 543.69 811.747 493.434 800.668 416.385Z" fill="#F2F2F2" blush:i="0.0.0.1.0"/><path id="Background Shape_2" fill-rule="evenodd" clip-rule="evenodd" d="M285.24 466.448C295.5 400.992 846.005 274.655 948.204 336.654C1050.4 398.652 1024.53 529.059 810.363 558.854C596.191 588.65 274.98 531.904 285.24 466.448Z" fill="#C7D1D9" blush:i="0.0.0.1.1"/></g><g id="Hanging Lamp" blush:i="0.0.0.2"><g id="Light" blush:i="0.0.0.2.0"><ellipse id="Hanging Lamp Light" cx="106.5" cy="187.173" rx="42.5" ry="22.5" fill="#F2F2F2" blush:i="0.0.0.2.0.0"/><ellipse id="Hanging Lamp_2" cx="106.5" cy="177.673" rx="49.5" ry="25" fill="#C7D1D9" blush:i="0.0.0.2.0.1"/></g><rect id="Wire" x="104" width="5" height="160" fill="#C7D1D9" blush:i="0.0.0.2.1"/></g><g id="Hanging Lamp_3" opacity="0.7" blush:i="0.0.0.3"><g id="Light_2" blush:i="0.0.0.3.0"><ellipse id="Hanging Lamp Light_2" cx="216" cy="140.842" rx="31.7677" ry="18.1579" fill="#F2F2F2" blush:i="0.0.0.3.0.0"/><ellipse id="Hanging Lamp_4" cx="216" cy="133.175" rx="37" ry="20.1754" fill="#C7D1D9" blush:i="0.0.0.3.0.1"/></g><rect id="Wire_2" x="214" width="5" height="136" fill="#C7D1D9" blush:i="0.0.0.3.1"/></g><g id="Lamp" blush:i="0.0.0.4"><path id="Body (Stroke)" fill-rule="evenodd" clip-rule="evenodd" d="M855.054 218.473C853.875 217.842 852.458 217.842 851.279 218.473L809.775 240.688L806 233.635L847.504 211.42C851.041 209.527 855.292 209.527 858.829 211.42L958.326 264.676C964.828 268.156 968.888 274.933 968.888 282.309V606.926H960.888V282.309C960.888 277.884 958.452 273.817 954.55 271.729L855.054 218.473Z" fill="#CBCBCB" blush:i="0.0.0.4.0"/><rect id="Lamp Base" x="933" y="603" width="59" height="7" rx="3" fill="#AFB9C5" blush:i="0.0.0.4.1"/><g id="Lamp Top" blush:i="0.0.0.4.2"><path id="Lamp_2" d="M770.499 223.335C783.386 210.447 804.28 210.447 817.168 223.335V223.335C830.055 236.222 830.055 257.116 817.168 270.004L797.369 289.803L750.7 243.134L770.499 223.335Z" fill="#C5CFD6" blush:i="0.0.0.4.2.0"/><ellipse id="Lamp_3" cx="774.824" cy="265.931" rx="33" ry="6.5" transform="rotate(45 774.824 265.931)" fill="#F2F2F2" blush:i="0.0.0.4.2.1"/></g></g><g id="Big Leaf Plant" blush:i="0.0.0.5"><g id="Big Ass Leaf" blush:i="0.0.0.5.0"><path id="leaf" fill-rule="evenodd" clip-rule="evenodd" d="M99.258 372.173C102.123 371.823 105.18 371.947 107.844 373.077C113.509 375.482 115.119 382.174 115.041 387.614C114.957 393.468 113.714 399.863 118.165 404.58C120.211 406.748 122.756 408.408 124.765 410.617C126.912 412.977 128.597 415.677 129.844 418.577C132.134 423.903 133.258 430.167 131.164 435.754C129.32 440.674 124.681 445.114 125.683 450.708C126.729 456.543 132.612 461.004 136.29 465.351C140.453 470.269 144.286 476.556 144.916 483.006C145.519 489.188 142.828 495.44 138.699 500.113C130.448 509.451 118.045 514.028 105.54 514C100.23 513.988 94.2186 513.748 89.6366 510.895C88.2204 510.013 87.4733 509.023 86.6315 507.648C85.8767 506.414 84.8796 505.612 83.7255 504.739C81.1899 502.822 79.3587 500.239 78.1901 497.347C73.6522 486.114 77.2792 472.218 83.6312 462.243C85.1364 459.88 86.3686 457.605 85.6374 454.789C84.8744 451.848 82.999 449.196 81.3403 446.669C79.7011 444.17 77.8299 441.787 76.5488 439.087C75.207 436.257 74.8292 433.294 75.0662 430.198C75.5118 424.381 78.0227 419.013 81.5777 414.336C85.0017 409.83 89.0221 405.518 89.0311 399.615C89.041 393.357 84.8577 387.791 86.6399 381.429C87.3778 378.795 88.86 376.092 91.2486 374.513C93.5393 372.998 96.5639 372.502 99.258 372.173Z" fill="#C7D1D9" blush:i="0.0.0.5.0.0"/><path id="middle thing" fill-rule="evenodd" clip-rule="evenodd" d="M97.3862 382.176C97.4399 381.336 98.4367 380.832 99.2215 381.051C100.254 381.34 100.235 382.305 100.207 383.165C100.124 385.808 100.506 388.377 101.142 390.942C102.462 396.274 104.903 401.186 106.836 406.308C108.768 411.425 109.675 416.709 108.542 422.124C107.473 427.23 105.795 432.203 104.701 437.315C103.738 441.821 102.712 446.573 104.18 451.067C105.592 455.393 108.714 458.916 110.962 462.825C115.617 470.918 117.681 479.896 117.957 489.135C118.085 493.425 117.97 497.755 116.975 501.963C116.402 504.386 115.632 507.66 113.556 509.333C112.599 510.105 110.961 510.371 110.155 509.229C109.399 508.158 110.062 506.499 110.303 505.357C111.343 500.413 111.552 495.361 111.303 490.342C111.062 485.48 110.487 480.626 108.957 475.982C107.537 471.673 105.379 467.802 102.84 464.032C100.252 460.191 97.562 456.341 96.4928 451.789C95.4065 447.166 96.289 442.462 97.4691 437.927C98.7171 433.131 100.352 428.472 102.042 423.805C103.689 419.258 104.272 414.955 103.363 410.196C101.567 400.794 96.7598 391.968 97.3862 382.176Z" fill="#C5CFD6" blush:i="0.0.0.5.0.1"/></g><g id="Big Ass Leaf_2" blush:i="0.0.0.5.1"><path id="leaf_2" fill-rule="evenodd" clip-rule="evenodd" d="M174.892 383.582C178.437 384.659 181.958 386.395 184.485 389.118C189.858 394.909 188.209 403.661 185.243 410.053C182.05 416.933 177.212 423.849 179.94 431.743C181.193 435.372 183.301 438.659 184.49 442.316C185.761 446.224 186.309 450.294 186.239 454.372C186.11 461.862 184.118 469.855 178.708 475.373C173.945 480.232 166.158 483.07 164.377 490.206C162.518 497.651 167.061 505.988 169.078 513.041C171.36 521.024 172.533 530.453 169.862 538.409C167.303 546.034 160.842 552.028 153.528 555.406C138.915 562.156 121.949 561.117 107.296 554.578C101.075 551.801 94.1506 548.391 90.2845 542.633C89.0897 540.853 88.7364 539.294 88.476 537.23C88.2426 535.378 87.4972 533.911 86.6048 532.278C84.644 528.692 83.8618 524.684 84.0198 520.656C84.6345 505.011 96.2336 490.464 108.956 481.972C111.971 479.96 114.618 477.912 115.249 474.2C115.909 470.325 115.111 466.213 114.501 462.361C113.899 458.554 112.964 454.763 112.889 450.902C112.811 446.858 113.933 443.157 115.848 439.619C119.445 432.972 125.227 427.93 131.87 424.247C138.267 420.7 145.262 417.692 148.393 410.715C151.712 403.32 149.747 394.561 155.2 387.964C157.458 385.233 160.625 382.807 164.262 382.182C167.749 381.583 171.558 382.57 174.892 383.582Z" fill="#C7D1D9" blush:i="0.0.0.5.1.0"/><path id="middle thing_2" fill-rule="evenodd" clip-rule="evenodd" d="M167.651 395.811C168.154 394.844 169.584 394.769 170.387 395.44C171.443 396.324 170.914 397.456 170.432 398.46C168.95 401.547 168.052 404.789 167.452 408.159C166.204 415.166 166.485 422.262 166.063 429.341C165.642 436.414 163.935 443.147 159.774 448.965C155.85 454.452 151.283 459.462 147.327 464.943C143.841 469.773 140.153 474.863 139.516 480.954C138.901 486.817 140.707 492.626 141.288 498.434C142.492 510.457 140.204 522.171 135.688 533.257C133.591 538.405 131.189 543.472 127.821 547.933C125.882 550.503 123.267 553.977 119.963 554.869C118.44 555.281 116.385 554.739 116.042 552.964C115.718 551.298 117.363 549.682 118.242 548.455C122.047 543.146 124.938 537.273 127.275 531.198C129.54 525.314 131.41 519.265 132.053 512.963C132.649 507.116 132.153 501.401 131.158 495.606C130.144 489.701 129.015 483.732 130.149 477.781C131.3 471.736 134.795 466.628 138.55 461.876C142.521 456.85 146.873 452.19 151.293 447.549C155.6 443.027 158.536 438.238 159.966 432.126C162.79 420.049 161.791 407.078 167.651 395.811Z" fill="#C5CFD6" blush:i="0.0.0.5.1.1"/></g><g id="Big Ass Leaf_3" blush:i="0.0.0.5.2"><path id="leaf_3" fill-rule="evenodd" clip-rule="evenodd" d="M65.306 428C71.2003 428 76.3823 431.124 79.9531 435.558C84.133 440.748 84.9772 447.086 86.6745 453.272C87.5191 456.35 88.9717 459.406 91.5174 461.498C93.8327 463.4 96.7721 463.78 99.5435 464.71C105.082 466.567 109.555 471.041 111.321 476.499C113.476 483.158 111.193 489.873 111.586 496.622C111.947 502.819 118.058 506.685 122.974 509.656C127.821 512.586 132.189 515.328 133.649 521.035C135.197 527.088 135.716 533.844 133.572 539.823C130.002 549.779 119.552 554.163 109.456 554.842C100.293 555.459 88.7719 554.491 81.8907 547.84C77.773 543.86 76.2819 538.293 76.4669 532.755C76.5818 529.311 77.264 525.899 78.146 522.571C78.7711 520.213 79.6157 517.864 79.8563 515.427C80.4959 508.942 74.5026 507.697 69.401 505.916C62.9183 503.654 58.3799 499.38 55.224 493.425C52.285 487.881 51.0519 481.658 52.8137 475.554C53.7135 472.437 55.3456 469.61 57.559 467.205C58.5334 466.146 59.9066 465.263 60.7861 464.151C61.6069 463.112 61.4282 461.766 61.1453 460.55C59.8373 454.931 55.762 450.278 54.3045 444.668C52.9887 439.605 53.7665 433.304 58.3954 430.038C60.3953 428.627 62.8616 428.016 65.306 428Z" fill="#C5CFD6" blush:i="0.0.0.5.2.0"/><path id="middle thing_3" fill-rule="evenodd" clip-rule="evenodd" d="M73.3377 442.641C79.585 449.296 81.2831 458.325 81.7815 467.076C82.0606 471.983 81.7701 477.159 83.2118 481.919C84.4454 485.993 87.3373 489.107 90.3183 492.051C96.3188 497.975 103.011 503.999 104.766 512.574C105.796 517.606 105.101 522.804 106.524 527.78C107.817 532.304 110.096 536.748 112.867 540.568C115.098 543.645 118.004 546 120.443 548.867C121.187 549.743 122.253 551.031 121.946 552.267C121.586 553.714 119.743 554.172 118.435 553.945C115.386 553.415 112.819 550.503 110.825 548.386C107.91 545.291 105.432 541.962 103.419 538.227C101.183 534.08 99.3833 529.679 98.6142 525.026C97.8161 520.199 98.2133 515.168 96.3909 510.535C93.3242 502.74 85.886 498.14 80.5082 492.064C73.8077 484.494 74.807 475.072 75.4933 465.759C75.8703 460.641 76.2451 454.862 73.6591 450.189C72.672 448.406 70.4711 446.743 70.0467 444.715C69.6579 442.858 71.7797 440.981 73.3377 442.641Z" fill="#AFB9C5" blush:i="0.0.0.5.2.1"/></g><ellipse id="Base" cx="119" cy="581" rx="39" ry="29" fill="#89C5CC" blush:i="0.0.0.5.3"/></g><g id="Table" blush:i="0.0.0.6"><g id="Lamp_4" blush:i="0.0.0.6.0"><rect id="Lamp Base_2" x="263" y="497" width="38" height="9" rx="2" fill="#AFB9C5" blush:i="0.0.0.6.0.0"/><path id="Lamp Body" fill-rule="evenodd" clip-rule="evenodd" d="M280.217 424H282H283H284.783C285.301 439.419 287.707 454.085 292 468H298.5C307.06 468 314 474.94 314 483.5C314 492.06 307.06 499 298.5 499H265.5C256.94 499 250 492.06 250 483.5C250 474.94 256.94 468 265.5 468H273C279.44 447.128 280.217 424 280.217 424Z" fill="#C7D1D9" blush:i="0.0.0.6.0.1"/><path id="Shade" fill-rule="evenodd" clip-rule="evenodd" d="M246.622 354.679C246.622 354.679 263.811 353 281 353C298.189 353 315.378 354.679 315.378 354.679L320 434.133C320 434.133 300.5 436 281 436C261.5 436 242 434.133 242 434.133L246.622 354.679Z" fill="#C5CFD6" blush:i="0.0.0.6.0.2"/></g><path id="Table_2" fill-rule="evenodd" clip-rule="evenodd" d="M219 610V528V506H240H323H344V528V610H323V528H240V610H219Z" fill="#F2F2F2" blush:i="0.0.0.6.1"/></g><g id="Plant" blush:i="0.0.0.7"><g id="Succulents" blush:i="0.0.0.7.0"><path id="Thi Succs!" fill-rule="evenodd" clip-rule="evenodd" d="M804.381 328.208C813.214 349.197 828.229 363.781 836.182 385.605C840.898 398.547 842.864 412.62 842.983 427.032C843.048 434.86 842.911 442.694 842.875 450.522C842.839 458.156 842.632 465.741 841.984 473.327C841.332 480.952 840.603 488.487 840.282 496.159C840.031 502.137 839.917 509.091 837.891 514.544C836.279 518.881 832.183 519.516 831.097 514.256C830.493 511.333 830.569 508.068 830.636 505.063C830.721 501.208 830.945 497.359 831.06 493.504C831.519 478.036 830.923 462.566 831.235 447.092C831.539 431.973 833.482 416.871 831.332 401.853C829.556 389.452 825.046 378.802 819.862 368.593C814.874 358.771 809.445 349.187 806.075 338.014C805.107 334.806 804.359 331.481 804 328.03C804.157 327.957 804.284 328.016 804.381 328.208Z" fill="#C1DEE2" blush:i="0.0.0.7.0.0"/><path id="Thi Succs!_2" fill-rule="evenodd" clip-rule="evenodd" d="M801.974 369.617C803.723 370.88 804.7 372.728 805.882 374.551C807.352 376.817 809.081 378.863 810.551 381.131C813.615 385.86 816.308 390.879 819.102 395.799C824.406 405.137 828.433 415.091 830.427 425.895C832.495 437.092 833.052 448.648 833.919 460.012C834.839 472.056 835.765 484.188 835.887 496.279C835.942 501.696 836.235 507.446 835.584 512.825C835.179 516.173 833.668 519.027 830.261 519C823.025 518.942 819.627 510.927 818.208 504.354C816.119 494.674 815.702 484.393 816.033 474.494C816.432 462.558 818.504 450.802 819.4 438.912C820.35 426.325 819.814 413.96 815.486 402.109C813.3 396.12 810.763 390.274 808.484 384.325C807.514 381.792 806.719 379.19 805.409 376.831C803.951 374.208 802.142 371.826 801 369C801.324 369.206 801.649 369.411 801.974 369.617Z" fill="#89C5CC" blush:i="0.0.0.7.0.1"/><path id="Thi Succs!_3" fill-rule="evenodd" clip-rule="evenodd" d="M885.334 344.518C885.556 344.345 885.778 344.173 886 344C885.361 346.693 884.207 348.88 883.324 351.341C882.531 353.554 882.129 356.058 881.595 358.477C880.34 364.158 878.89 369.711 877.706 375.44C875.36 386.777 875.804 398.99 877.342 411.568C878.795 423.45 881.092 435.313 882.187 447.192C883.095 457.043 883.485 467.202 882.619 476.601C882.031 482.984 880.103 490.606 874.848 489.962C872.374 489.659 871.084 486.681 870.564 483.32C869.729 477.922 869.554 472.246 869.229 466.878C868.502 454.896 868.358 442.951 868.214 431.092C868.078 419.904 867.705 408.494 868.452 397.587C869.173 387.063 871.428 377.58 874.653 368.83C876.351 364.22 877.97 359.502 879.878 355.108C880.793 353.001 881.911 351.139 882.827 349.033C883.563 347.339 884.148 345.601 885.334 344.518Z" fill="#C1DEE2" blush:i="0.0.0.7.0.2"/><path id="Thi Succs!_4" fill-rule="evenodd" clip-rule="evenodd" d="M804.209 404.302C805.166 402.695 807.272 407.993 807.593 408.66C807.457 408.328 807.321 407.997 807.184 407.667C809.083 410.825 810.821 414.113 811.901 417.734C812.97 421.319 813.888 424.977 814.891 428.587C816.774 435.361 819.202 441.943 820.907 448.778C822.569 455.438 822.988 461.986 822.585 468.875C822.167 476.035 821.911 483.306 822.399 490.462C822.632 493.88 823.743 497.064 824.504 500.354C825.266 503.648 825.866 506.986 826.767 510.239C826.974 509.815 827 511.232 827 511.339C826.994 512.152 826.881 512.833 826.619 513.604C825.948 515.586 824.691 517.269 822.778 517.816C819.322 518.803 816.112 515.659 814.998 512.339C813.399 507.575 812.517 502.311 811.755 497.304C811.057 492.713 810.891 488.094 811.099 483.44C811.508 474.261 813.169 465.202 813.618 456.026C814.107 446.036 812.128 436.649 810.471 426.925C809.673 422.239 808.91 417.598 807.356 413.134C806.727 411.326 805.907 409.731 805.048 408.061C804.558 407.112 803.569 405.418 804.209 404.302Z" fill="#C1DEE2" blush:i="0.0.0.7.0.3"/><path id="Thi Succs!_5" fill-rule="evenodd" clip-rule="evenodd" d="M832.252 388.697C831.856 400.142 831.172 411.5 829.646 422.824C828.089 434.38 826.3 445.897 824.802 457.463C823.343 468.722 821.815 480.168 822.018 491.585C822.168 499.993 820.774 514.219 830.113 518.369C839.572 522.572 841.601 504.623 842.222 498.699C843.412 487.333 843.027 475.847 842.449 464.419C841.856 452.689 840.866 441.02 839.64 429.334C838.277 416.353 837.208 403.314 836.349 390.296C835.925 383.857 835.82 377.429 835.937 370.988C836.048 364.911 835.817 358.77 833.656 353C833.543 353.082 833.431 353.164 833.318 353.246" fill="#56919C" blush:i="0.0.0.7.0.4"/><path id="Thi Succs!_6" fill-rule="evenodd" clip-rule="evenodd" d="M881.083 424.955C879.382 427.433 877.667 429.887 876.061 432.512C873.186 437.209 870.587 442.432 869.805 449.147C868.169 463.2 869.481 478.379 869.798 492.863C869.863 495.822 869.489 498.693 870.655 501.51C871.713 504.064 873.691 506.01 875.576 506C879.611 505.977 878.995 496.095 879.002 491.746C879.014 484.123 878.159 476.422 878.233 468.806C878.306 461.26 878.765 453.694 879.859 446.528C880.967 439.275 882.589 432.309 884.729 425.81C885.026 424.908 887.158 417.937 885.144 419.139" fill="#89C5CC" blush:i="0.0.0.7.0.5"/><path id="Thi Succs!_7" fill-rule="evenodd" clip-rule="evenodd" d="M863.262 350C860.609 350 860.625 363.226 860.546 364.925C860.257 371.055 860.325 377.188 860.143 383.319C859.744 396.701 859.254 410.2 857.243 423.426C856.161 430.547 854.907 437.636 853.557 444.702C852.204 451.789 850.387 458.867 849.497 466.044C848.642 472.943 849.125 479.977 849.242 486.91C849.359 493.885 849.57 500.874 850.484 507.788C850.709 509.494 850.974 511.195 851.257 512.891C851.492 514.305 851.355 516.058 851.754 517.401C852.393 519.552 855.133 520.256 856.978 519.92C861.97 519.009 865.159 512.74 866.865 508.16C869.043 502.311 870.199 495.967 871.339 489.804C872.631 482.821 873.388 475.732 873.743 468.623C874.466 454.175 873.539 439.712 872.504 425.31C871.928 417.301 871.263 409.327 870.246 401.367C869.232 393.441 867.932 385.55 867.086 377.601C866.471 371.825 865.865 366.04 865.467 360.241C865.371 358.859 865.291 350 863.262 350" fill="#56919C" blush:i="0.0.0.7.0.6"/><path id="Thi Succs!_8" fill-rule="evenodd" clip-rule="evenodd" d="M859.941 446.139C859.508 432.253 853.927 371.259 852.657 354.467C852.339 350.264 849.282 332.765 848.885 328C847.81 329.347 847.901 350.309 847.913 355.126C847.926 359.891 847.335 364.576 847.031 369.315C846.721 374.151 839.572 436.601 838.645 441.247C836.799 450.491 835.564 459.976 834.611 469.428C833.683 478.639 832.24 488.358 833.482 497.618C833.767 499.75 834.219 501.848 834.955 503.806C835.749 505.922 836.294 507.879 836.932 510.093C837.958 513.659 839.815 516.789 842.668 518.262C848.517 521.281 851.658 514.447 853.251 508.497C855.793 498.995 857.426 489.338 858.191 479.359C859.037 468.318 860.287 457.255 859.941 446.139" fill="#89C5CC" blush:i="0.0.0.7.0.7"/></g><g id="Planter" blush:i="0.0.0.7.1"><rect id="Vase" x="798" y="487" width="91" height="91" rx="2" fill="white" blush:i="0.0.0.7.1.0"/><rect id="Leg" x="788" y="497" width="10" height="113" rx="2" fill="#C5CFD6" blush:i="0.0.0.7.1.1"/><rect id="Leg_2" x="838" y="497" width="10" height="113" rx="2" fill="#C5CFD6" blush:i="0.0.0.7.1.2"/><rect id="Leg_3" x="889" y="497" width="10" height="113" rx="2" fill="#C5CFD6" blush:i="0.0.0.7.1.3"/></g></g></g></g><g id="Master/Pose/Standing" blush:has-customizable-colors="true" blush:component="Master/Pose/Standing" blush:width="300" blush:height="426" transform="matrix(-1 0 0 1 878 214) scale(1 1)" blush:i="0.1" blush:value="Standing" blush:viewBox="-1.2784090909090935 0 302.55681818181813 425.9999999999999"><g id="Master/Pose/Standing" blush:has-customizable-colors="true" blush:viewBox="-1.2784090909090935 0 302.55681818181813 425.9999999999999" blush:i="0.1.0"><g id="Head/Front" blush:component="Head/Front" blush:defaultValue="Afro" blush:width="136" blush:height="104" transform="translate(82 0) scale(1 1)" blush:i="0.1.0.0" blush:value="Chongo" blush:viewBox="38.75999999999999 3.6753926701570663 57.799999999999976 100.73298429319371"><g id="Head/Front/Chongo" blush:viewBox="38.75999999999999 3.6753926701570663 57.799999999999976 100.73298429319371" blush:i="0.1.0.0.0"><g id="Head" blush:i="0.1.0.0.0.0"><path id="SKIN" fill-rule="evenodd" clip-rule="evenodd" d="M73.9354 75.2443C80.411 79.1475 86.7736 81.0333 89.7603 80.2635C97.2496 78.333 97.9382 50.9351 92.1433 40.1339C86.3485 29.3328 56.5583 24.625 55.0568 46.0255C54.5356 53.4529 57.6544 60.0814 62.2623 65.4901L54 104H78L73.9354 75.2443Z" fill="#dcae92" blush:color="Skin-500" blush:i="0.1.0.0.0.0.0"/></g><path id="hair" fill-rule="evenodd" clip-rule="evenodd" d="M82.6634 28.37C79.3839 27.37 74.6233 27.0308 72.6207 27.2603C73.7599 24.5308 74.2119 21.4899 73.8434 18.5291C73.4852 15.6521 72.1997 13.2024 71.0107 10.6354C70.4627 9.45217 69.8416 8.2754 68.9156 7.37038C67.9723 6.44834 66.7782 5.83973 65.5261 5.54937C64.2447 5.25215 62.9049 5.2769 61.6216 5.54663C61.0538 5.66593 60.5444 5.9255 59.9877 6.06979C59.4175 6.21763 59.1409 5.86077 58.7271 5.50213C57.7297 4.63797 56.2676 4.21138 55.0059 4.0587C53.5902 3.88748 52.1213 4.10102 50.7712 4.56639C49.4571 5.01943 48.1947 5.75509 47.2446 6.82681C46.8215 7.30387 46.4375 7.84687 46.188 8.44638C46.0856 8.6924 46.0687 8.83815 45.8232 8.92827C45.5961 9.0117 45.3306 9.01412 45.0962 9.09353C42.8304 9.86095 40.8931 11.6117 39.8383 13.8595C39.2229 15.1709 38.9314 17.4798 39.0112 20.0677C39.0911 22.6555 41.4278 29.4081 43.6133 31.8711C45.5641 34.0695 48.4316 35.5203 51.1989 36.1553C49.3621 38.2548 48.1394 40.8784 47.2352 43.5467C46.2531 46.445 45.6453 49.4566 45.4208 52.5251C45.2076 55.4405 45.1879 58.5235 45.8713 61.3767C46.5107 64.0448 47.878 66.2337 50.1606 67.6223C51.2062 68.2584 52.3312 68.7363 53.4626 69.173C54.5777 69.6034 55.6962 70.0219 56.8642 70.2634C59.0748 70.7203 61.622 70.6418 63.3249 68.8822C63.9386 68.2479 64.6136 67.4508 65.0613 66.6759C65.2223 66.3972 65.3194 66.215 65.1238 65.9426C64.8895 65.6164 64.5105 65.3664 64.2094 65.1112C62.4929 63.6561 61.4303 61.7135 61.1625 59.4049C60.8907 57.0626 61.5199 54.0393 63.7972 53.017C66.6083 51.7552 69.7042 53.2036 72.2027 54.5537C73.2646 50.806 75.4449 47.4315 78.8633 45.7124C82.6451 43.8105 86.9847 43.5879 90.8711 41.9561C91.8838 41.5309 92.9153 41.0482 93.6609 40.1818C93.9725 39.8197 94.338 39.35 94.4624 38.871C94.6259 38.2419 94.2201 37.7145 93.9067 37.2241C92.2449 34.6236 85.9428 29.37 82.6634 28.37Z" fill="#b58143" blush:color="Hair-500" blush:i="0.1.0.0.0.1"/></g></g><g id="Lower Body/Standing" blush:component="Lower Body/Standing" blush:defaultValue="Jogging" blush:width="300" blush:height="239" transform="translate(0 187) scale(1 1)" blush:i="0.1.0.1" blush:value="Shorts" blush:viewBox="84 -0.6005025125627981 152.99999999999997 240.2010050251256"><g id="Lower Body/Standing/Shorts" blush:viewBox="84 -0.6005025125627981 152.99999999999997 240.2010050251256" blush:i="0.1.0.1.0"><path id="SKIN" fill-rule="evenodd" clip-rule="evenodd" d="M128 0L165.631 123.024L183.86 227.648H198.153L178.891 0H128Z" fill="#dcae92" blush:color="Skin-500" blush:i="0.1.0.1.0.0"/><path id="Shadow" fill-rule="evenodd" clip-rule="evenodd" d="M128 0L165.631 123.024L183.86 227.648H198.153L178.891 0H128Z" fill="black" fill-opacity="0.1" blush:i="0.1.0.1.0.1"/><path id="SKIN" fill-rule="evenodd" clip-rule="evenodd" d="M114.538 0C117.094 67.5469 114.086 102.389 113.514 108.526C112.942 114.663 105.108 154.455 86.5637 229.708L101.794 224.478C131.102 155.459 141.089 119.589 144.45 110.526C147.812 101.463 156.739 64.6208 171.233 0H114.538Z" fill="#dcae92" blush:color="Skin-500" blush:i="0.1.0.1.0.2"/><g id="Left [shoe]" blush:i="0.1.0.1.0.3"><path id="shoe" fill-rule="evenodd" clip-rule="evenodd" d="M89.4496 223.284C88.3779 222.813 87.1043 223.29 86.7051 224.391C85.977 226.398 85 229.409 85 231.106C85 233.811 85.9012 239 85.9012 239C89.0392 239 142.303 239 142.303 239C142.303 239 144.502 231.732 139.765 231.152C135.028 230.573 131.895 230.106 131.895 230.106L105.68 218.419C105.165 218.189 104.563 218.43 104.348 218.951L102.663 223.039C102.663 223.039 98.2782 225.085 95.5367 225.085C93.8677 225.085 91.2457 224.074 89.4496 223.284Z" fill="#E4E4E4" blush:i="0.1.0.1.0.3.0"/></g><g id="Right [shoe]" blush:i="0.1.0.1.0.4"><path id="shoe_2" fill-rule="evenodd" clip-rule="evenodd" d="M183.45 223.284C182.378 222.813 181.104 223.29 180.705 224.391C179.977 226.398 179 229.409 179 231.106C179 233.811 179.901 239 179.901 239C183.039 239 236.303 239 236.303 239C236.303 239 238.502 231.732 233.765 231.152C229.028 230.573 225.895 230.106 225.895 230.106L199.68 218.419C199.165 218.189 198.563 218.43 198.348 218.951L196.663 223.039C196.663 223.039 192.278 225.085 189.537 225.085C187.868 225.085 185.246 224.074 183.45 223.284Z" fill="#E4E4E4" blush:i="0.1.0.1.0.4.0"/></g><path id="Bottom" fill-rule="evenodd" clip-rule="evenodd" d="M123 0L139 62.6795H187.87L180.584 0H123Z" fill="#191847" blush:color="Bottom-700" blush:i="0.1.0.1.0.5"/><path id="Bottom" fill-rule="evenodd" clip-rule="evenodd" d="M114 0C106.103 23.6708 111 62.6795 111 62.6795H160.87L174.584 0L114 0Z" fill="#393f82" blush:color="Bottom-500" blush:i="0.1.0.1.0.6"/></g></g><g id="Upper Body" blush:component="Upper Body" blush:defaultValue="Jacket" blush:width="256" blush:height="187" transform="translate(22 82) scale(1 1)" blush:i="0.1.0.2" blush:value="Trench Coat" blush:viewBox="-1.2800000000000011 -0.6404109589041127 252.15999999999994 226.7054794520548"><g id="Upper Body/Trench Coat" blush:viewBox="-1.2800000000000011 -0.6404109589041127 252.15999999999994 226.7054794520548" blush:i="0.1.0.2.0"><path id="SKIN" fill-rule="evenodd" clip-rule="evenodd" d="M24.0271 138.201C27.9454 132.855 51.5391 75.3752 51.5391 75.3752L69.1504 78.564C69.1504 78.564 38.4903 139.405 36.3073 142.902C33.4714 147.445 35.5707 155.142 36.9942 160.361C37.2144 161.169 37.4184 161.917 37.5855 162.585C34.1826 163.44 32.9683 161.467 31.6882 159.387C30.2422 157.037 28.7122 154.551 23.8497 155.85C21.9711 156.351 20.1598 157.017 18.3901 157.667C12.2774 159.912 6.66196 161.974 0.486925 156.477C-0.492045 155.606 -1.24581 152.841 2.01427 151.36C10.1363 147.669 22.1115 140.815 24.0271 138.201ZM227.788 108.555L195.89 85.1316L188.838 102.563L220.426 115.661C229.359 126.155 234.355 130.53 235.412 128.785C236.304 127.314 235.607 125.937 234.965 124.669C234.465 123.681 233.998 122.758 234.342 121.909C235.126 119.97 241.127 120.174 246.814 120.611C252.5 121.048 250.843 118.518 249.472 117.269C243.667 113.794 236.439 110.89 227.788 108.555Z" fill="#dcae92" blush:color="Skin-500" blush:i="0.1.0.2.0.0"/><path id="Back Arm" fill-rule="evenodd" clip-rule="evenodd" d="M138.264 2.0415L127.569 6.42763C127.681 9.22099 127.67 13.1947 127.658 17.7472C127.618 32.036 127.562 52.0268 131.254 59.1216C144.043 83.7012 170.303 96.5048 199.551 110.765C203.471 112.676 207.445 114.614 211.448 116.61L219.495 100.182C218.563 99.521 217.639 98.8566 216.723 98.1885C217.987 97.7455 219.042 96.7451 219.503 95.3772C220.296 93.022 219.03 90.4694 216.675 89.6759C211.889 88.0632 207.424 87.3833 203.32 87.678C173.349 62.4233 153.173 32.8583 138.264 2.0415Z" fill="#c21b15" blush:color="Top-700" blush:i="0.1.0.2.0.1"/><path id="Shirt" fill-rule="evenodd" clip-rule="evenodd" d="M90 113.91C90 113.91 137.157 119.09 164.236 113.91C166.473 113.482 166.375 103.84 165.337 101.207C149.185 60.2019 138.56 30.184 138.56 1.70264C134.115 4.02478 123 2.39864 123 2.39864C103.086 31.7496 93.9325 65.4265 90 113.91Z" fill="#191847" blush:i="0.1.0.2.0.2"/><path id="Coat Front" fill-rule="evenodd" clip-rule="evenodd" d="M30.1925 114.406C57.9812 34.9799 114.976 0 114.976 0H116.532H120.377H126.348C125.06 17.0357 131.113 41.826 138.134 70.5842C149.364 116.577 163.071 172.719 153.191 223.518C141.042 226.231 126.766 224.379 111.312 222.374C89.0082 219.479 64.2489 216.267 39.8828 226C40.8222 205.65 52.7036 183.124 64.5315 160.699C72.0289 146.484 79.5048 132.31 84.1585 118.758C83.0909 117.753 82.5343 116.247 82.8078 114.696L83.3288 111.741C83.6818 109.739 85.3078 108.281 87.2277 108.053C87.5633 106.553 87.8527 105.063 88.0917 103.583C89.3128 96.0246 88.5333 88.5548 87.7625 81.169L87.7624 81.1688C87.3392 77.1137 86.9187 73.084 86.8334 69.0787C73.4403 81.0101 57.228 101.813 43.5479 137.871L24.6611 132.313C25.3833 129.63 26.1401 126.991 26.9288 124.396C24.7427 123.191 22.1654 117.47 24.0066 116.516C25.952 115.508 28.0161 114.807 30.1925 114.406Z" fill="#ff4133" blush:color="Top-500" blush:i="0.1.0.2.0.3"/><path id="Shade Lapel" fill-rule="evenodd" clip-rule="evenodd" d="M119.106 1L113.947 16.8654L124.336 28.759L114.947 38.1055L137.662 77L109.884 38.1832L119.106 28.759L109.884 18.2485L119.106 1Z" fill="black" fill-opacity="0.1" blush:i="0.1.0.2.0.4"/><path id="Buttons" fill-rule="evenodd" clip-rule="evenodd" d="M135 88C135 90.2091 133.209 92 131 92C128.791 92 127 90.2091 127 88C127 85.7909 128.791 84 131 84C133.209 84 135 85.7909 135 88ZM140 111C140 113.209 138.209 115 136 115C133.791 115 132 113.209 132 111C132 108.791 133.791 107 136 107C138.209 107 140 108.791 140 111ZM137 138C139.209 138 141 136.209 141 134C141 131.791 139.209 130 137 130C134.791 130 133 131.791 133 134C133 136.209 134.791 138 137 138Z" fill="black" fill-opacity="0.4" blush:i="0.1.0.2.0.5"/></g></g></g></g><g id="Master/Pose/Sitting" blush:has-customizable-colors="true" blush:component="Master/Pose/Sitting" blush:width="300" blush:height="426" transform="translate(378 214) scale(1 1)" blush:i="0.2" blush:value="Sitting" blush:viewBox="-46.02272727272725 72.42000000000002 302.5568181818182 428.13000000000005"><g id="Master/Pose/Sitting" blush:has-customizable-colors="true" blush:viewBox="-46.02272727272725 72.42000000000002 302.5568181818182 428.13000000000005" blush:i="0.2.0"><g id="Head/Front" blush:component="Head/Front" blush:defaultValue="Bun and Mullet" blush:width="136" blush:height="104" transform="translate(38 73) scale(1 1)" blush:i="0.2.0.0" blush:value="Hijab 1" blush:viewBox="36.04000000000002 28.17801047120419 60.51999999999998 76.23036649214659"><g id="Head/Front/Hijab 1" blush:viewBox="36.04000000000002 28.17801047120419 60.51999999999998 76.23036649214659" blush:i="0.2.0.0.0"><g id="Head" blush:i="0.2.0.0.0.0"><path id="SKIN" fill-rule="evenodd" clip-rule="evenodd" d="M73.9354 75.2443C80.411 79.1475 86.7736 81.0333 89.7603 80.2635C97.2496 78.333 97.9382 50.9351 92.1433 40.1339C86.3485 29.3328 56.5583 24.625 55.0568 46.0255C54.5356 53.4529 57.6544 60.0814 62.2623 65.4901L54 104H78L73.9354 75.2443Z" fill="#915b3c" blush:color="Skin-500" blush:i="0.2.0.0.0.0.0"/></g><g id="Hijab" blush:i="0.2.0.0.0.1"><path id="Front" fill-rule="evenodd" clip-rule="evenodd" d="M86.735 33.0115C86.1853 32.6834 85.0351 31.9913 84.4525 31.7405C84.3146 31.6801 83.3492 30.9914 83.3232 31.0001C82.5922 31.2467 80.4756 32.1571 80.294 32.9439C80.2658 33.0035 80.2382 33.0594 80.2112 33.1083C79.9113 33.6535 79.6361 34.2123 79.3736 34.7779C78.7975 36.0194 78.3002 37.317 77.8253 38.6043C76.9002 41.1116 76.0965 43.6772 75.3576 46.2486C74.6054 48.8663 73.9669 51.5146 73.2522 54.1431C72.2237 57.9254 70.9074 61.6149 69.886 65.3957C69.2338 67.8098 68.871 70.2522 69.0423 72.7368C69.0439 72.7667 69.0449 72.7962 69.0476 72.8265C69.0487 72.839 69.0502 72.8512 69.0513 72.8637C69.0804 73.2456 69.122 73.6285 69.1773 74.0125C69.2257 74.3409 69.2743 74.6705 69.3261 75C70.2591 73.1396 70.9714 71.0897 71.7272 69.144C71.8012 68.9535 71.8717 68.7617 71.9406 68.5692C72.1844 68.1746 72.4329 67.7829 72.6842 67.3926C74.2689 64.9316 75.8599 62.4796 77.3795 59.9741C80.1128 55.4677 82.8206 50.8661 86.0611 46.7279C87.0179 45.5059 87.9971 44.3027 88.9419 43.0707C89.4796 42.3697 90.0033 41.6569 90.51 40.9314C90.8722 40.4126 92.4471 38.6043 91.8768 37.5179C91.585 36.9621 88.1611 33.8627 86.735 33.0115Z" fill="#2C2C2C" blush:i="0.2.0.0.0.1.0"/><path id="Turban" fill-rule="evenodd" clip-rule="evenodd" d="M84.626 31.8312C85.1606 32.0109 84.9005 30.8984 84.3827 30.5069C81.9838 28.6933 72.8126 28.0352 64.8316 29.6919C59.4851 30.8018 53.267 33.5642 48.9966 37.1155C45.1469 40.317 42.4994 45.4492 41.1364 50.4077C39.7052 55.6143 39.4884 61.0423 40.2858 66.3814C40.4609 67.5542 40.8373 68.6718 41.0471 69.8197C41.2832 71.1123 41.4044 72.3569 41.8254 73.6146C42.0832 74.3845 42.5213 75.1393 42.7413 75.9137C42.9924 76.7973 42.8394 77.6147 42.6562 78.5134C42.3578 79.9782 41.9878 81.44 41.462 82.839C40.6723 84.9398 39.7141 86.9073 39.1133 89.0873C38.3139 91.9879 34.97 101.427 37.4137 104H83.9323C82.761 100.805 79.2448 97.0443 78.533 93.6239C78.1138 91.6089 77.9144 87.2086 77.8705 87.0487C76.8222 79.8224 74.7753 76.3715 73.4933 75.1191C72.2113 73.8668 70.5038 73.4817 70.4158 72.3953C70.0522 67.9024 71.8388 63.5974 73.1489 59.4042C74.7103 54.4066 75.8546 49.285 77.4643 44.3043C78.177 42.0987 81.8502 30.8984 84.626 31.8312Z" fill="#8991DC" blush:i="0.2.0.0.0.1.1"/><path id="Shade" fill-rule="evenodd" clip-rule="evenodd" d="M66.5618 53.1421C66.1845 45.537 66.5618 42.566 68.316 37H67.2344C65.5245 39.2089 64.0938 45.9652 65.7013 53.1421H66.5618ZM45.3638 52.7838L45.3637 52.7836L45.3637 52.7834C45.175 52.3218 44.9819 51.8491 44.7821 51.3643L44.0945 51.6948C46.2641 59.6306 48.9031 65.7569 57.9652 70.8927L58.6701 70.3992C50.0996 64.3728 48.2618 59.8756 45.3638 52.7838ZM58.2134 43.2923C58.3042 43.9806 58.391 44.6509 58.4759 45.3055V45.3055C59.7785 55.3594 60.6045 61.735 67.8664 73.2976L67.0435 73.5492C59.0831 62.8261 57.8213 54.0741 57.4452 43.3541L58.2134 43.2923ZM50.3735 75.8804L49.6694 76.7363C53.1961 77.4744 55.594 80.0682 58.3429 83.0416C61.2514 86.1877 64.5528 89.7588 70 92.0068L71.0112 91.3941C65.0658 88.3027 62.2999 85.2305 59.8848 82.5479C57.3846 79.7707 55.2604 77.4111 50.3735 75.8804Z" fill="black" fill-opacity="0.2" blush:i="0.2.0.0.0.1.2"/></g></g></g><g id="Lower Body/Sitting" blush:component="Lower Body/Sitting" blush:defaultValue="Skinny Jeans 1" blush:width="300" blush:height="239" transform="translate(-44 260) scale(1 1)" blush:i="0.2.0.1" blush:value="Torqusie baggy pant" blush:viewBox="64.5 -0.6005025125627981 236.99999999999997 175.64698492462313"><g id="Lower Body/Sitting/Torqusie baggy pant" blush:viewBox="64.5 -0.6005025125627981 236.99999999999997 175.64698492462313" blush:i="0.2.0.1.0"><g id="Seat" blush:i="0.2.0.1.0.0"><g id="Seat_2" blush:i="0.2.0.1.0.0.0"><path id="Seat Stuff" fill-rule="evenodd" clip-rule="evenodd" d="M92.6226 42H169.877L180 166H65L92.6226 42Z" fill="#C5CFD6" blush:i="0.2.0.1.0.0.0.0"/><path id="Seat Stuff_2" fill-rule="evenodd" clip-rule="evenodd" d="M92.6226 42H116.383L130.604 166H65L92.6226 42Z" fill="black" fill-opacity="0.1" blush:i="0.2.0.1.0.0.0.1"/></g></g><g id="Group 10" blush:i="0.2.0.1.0.1"><path id="Fill 1" fill-rule="evenodd" clip-rule="evenodd" d="M180.438 138.534C180.438 138.534 192.946 108.532 197.151 110.083C200.815 111.433 218.282 120.997 217.593 122.883C216.871 124.858 212.329 130.741 212.329 130.741C212.329 130.741 222.502 139.24 227.934 146.404C230.797 150.18 234.501 158.947 231.517 160.555C228.532 162.163 176.773 144.943 180.438 138.534" fill="#C7D1D9" blush:i="0.2.0.1.0.1.0"/><path id="Fill 3" fill-rule="evenodd" clip-rule="evenodd" d="M244.022 163.676C243.816 154.134 243.931 137.887 247.08 137.596C250.969 137.238 270.852 138.347 271.042 140.345C271.241 142.44 273.675 151.704 273.675 151.704C273.675 151.704 287.517 152.994 295.504 157.12C299.714 159.295 301.833 165.613 299.832 168.349C297.831 171.085 243.702 177.834 244.249 170.472C244.249 170.472 244.107 167.658 244.022 163.676Z" fill="#C7D1D9" blush:i="0.2.0.1.0.1.1"/><path id="Fill 5" fill-rule="evenodd" clip-rule="evenodd" d="M186.184 119.5C192.116 131.711 206.5 132.781 215.638 132.781C219.131 132.781 233.599 102.815 236.002 98.8681C249.076 77.3997 265.264 50.5728 265.264 50.5728C265.264 50.5728 238.021 32.8648 218.95 39.4028C218.95 39.4028 180.252 107.289 186.184 119.5Z" fill="#56919c" blush:color="Bottom-700" blush:i="0.2.0.1.0.1.2"/><g id="Group 9" blush:i="0.2.0.1.0.1.3"><path id="Fill 7" fill-rule="evenodd" clip-rule="evenodd" d="M112.068 -0.000610352C112.068 -0.000610352 111.388 40.6062 132.587 48.3934C153.786 56.1806 207.283 62.3978 239.172 54.2092C232.62 76.1306 236.873 146.964 243.172 158.665C245.166 162.369 268.347 155.68 276.207 151.816C284.067 147.953 297.962 30.7784 282.839 20.8774C267.716 10.9764 171.455 -0.000610352 171.455 -0.000610352H112.068Z" fill="#89c5cc" blush:color="Bottom-500" blush:i="0.2.0.1.0.1.3.0"/></g></g></g></g><g id="Upper Body" blush:component="Upper Body" blush:defaultValue="Long Sleeve" blush:width="256" blush:height="187" transform="translate(-22 155) scale(1 1)" blush:i="0.2.0.2" blush:value="Pregnant" blush:viewBox="81.92000000000002 -0.6404109589041127 104.95999999999995 140.8904109589041"><g id="Upper Body/Pregnant" blush:viewBox="81.92000000000002 -0.6404109589041127 104.95999999999995 140.8904109589041" blush:i="0.2.0.2.0"><path id="Shirt" fill-rule="evenodd" clip-rule="evenodd" d="M181.729 118.264C162.738 157.816 82.7913 131.11 82.7913 131.11C82.7913 124.256 85.5096 117.385 88.3646 110.169C91.4258 102.431 94.6441 94.2962 94.8366 85.3605C95.1907 68.9211 98.2646 19.1125 111.093 2.28693C111.327 1.52679 111.564 0.764491 111.804 0L112.692 0.417788C112.831 0.274815 112.97 0.135529 113.111 0L141.101 4.32798C141.101 16.9883 149.203 28.9933 156.497 39.8002C158.271 42.4297 159.998 44.9882 161.549 47.468C163.58 50.7162 165.871 54.0224 168.22 57.4104C180.115 74.5688 193.464 93.8252 181.729 118.264Z" fill="#f2f2f2" blush:color="Top-500" blush:i="0.2.0.2.0.0"/><path id="SKIN" fill-rule="evenodd" clip-rule="evenodd" d="M145.863 110.787C147.735 101.127 148.949 94.6775 149.506 91.4391C164.418 108.29 173.033 116.813 175.35 117.009C179.709 117.376 182.93 113.511 183.847 114.598C185.362 119.098 181.081 130.362 172.898 132C168.991 132.782 162.944 124.724 160.453 121.869C159.473 120.746 154.61 117.052 145.863 110.787V110.787ZM171.621 59.2822C175.487 59.2822 177.563 60.8803 179.849 64.1045C182.134 67.3288 184.297 82.5349 180.628 82.5349C176.958 82.5349 161.583 76.6567 161.583 72.7049C161.583 68.7531 172.074 67.0796 172.074 64.1045C172.074 61.1295 167.756 59.2822 171.621 59.2822Z" fill="#915b3c" blush:color="Skin-500" blush:i="0.2.0.2.0.1"/><path id="Shade" fill-rule="evenodd" clip-rule="evenodd" d="M106.565 18.7186C96.7476 59.6506 100.747 94.1728 138.058 125.487C137.62 127.06 137.357 128 137.357 128C93.5608 97.3906 93.5398 60.2965 106.565 18.7186Z" fill="black" fill-opacity="0.2" blush:i="0.2.0.2.0.2"/></g></g></g></g><g id="Master/Pose/Standing" blush:has-customizable-colors="true" blush:component="Master/Pose/Standing" blush:width="300" blush:height="426" transform="translate(170 214) scale(1 1)" blush:i="0.3" blush:value="Standing" blush:viewBox="-1.2784090909090935 0 302.55681818181813 425.9999999999999"><g id="Master/Pose/Standing" blush:has-customizable-colors="true" blush:viewBox="-1.2784090909090935 0 302.55681818181813 425.9999999999999" blush:i="0.3.0"><g id="Head/Front" blush:component="Head/Front" blush:defaultValue="Afro" blush:width="136" blush:height="104" transform="translate(82 0) scale(1 1)" blush:i="0.3.0.0" blush:value="Short Beard" blush:viewBox="53.03999999999999 28.8586387434555 44.19999999999996 75.54973821989529"><g id="Head/Front/Short Beard" blush:viewBox="53.03999999999999 28.8586387434555 44.19999999999996 75.54973821989529" blush:i="0.3.0.0.0"><g id="Head" blush:i="0.3.0.0.0.0"><path id="SKIN" fill-rule="evenodd" clip-rule="evenodd" d="M73.9354 75.2443C80.411 79.1475 86.7736 81.0333 89.7603 80.2635C97.2496 78.333 97.9382 50.9351 92.1433 40.1339C86.3485 29.3328 56.5583 24.625 55.0568 46.0255C54.5356 53.4529 57.6544 60.0814 62.2623 65.4901L54 104H78L73.9354 75.2443Z" fill="#915b3c" blush:color="Skin-500" blush:i="0.3.0.0.0.0.0"/></g><path id="Hair" fill-rule="evenodd" clip-rule="evenodd" d="M71.7199 51.0426C71.4839 51.0144 71.2437 50.9999 71.0001 50.9999C67.6864 50.9999 65.0001 53.6862 65.0001 56.9999C65.0001 58.6821 65.6924 60.2026 66.8076 61.2921C65.4193 63.2517 63.8634 65.2988 62.0805 67.4111C55.3825 63.3926 49.4122 50.6289 55.9606 39.3282C57.7706 33.7921 62.8681 31.8351 67.7075 30.4621C71.6276 28.8223 75.697 28.6374 79.1322 29.6205C85.8661 30.198 91.8791 32.2514 93.5833 33.4708C93.5833 39.8461 92.348 41.7376 81.7969 41.5708C79.2043 42.94 77.2113 45.2978 75.1354 48.3888C75.1527 48.626 76.5501 67.5846 82.4259 67.5846C85.9827 67.5846 89.2152 66.2263 91.7912 65.1439C93.4976 64.4269 94.9159 63.8309 95.9497 63.8309C97.8409 63.8309 97.4187 66.1976 96.1651 67.9524C95.7677 68.5086 94.7795 69.0571 93.7132 69.6489C92.004 70.5976 90.094 71.6578 90.094 73.0399C90.094 74.3079 91.3641 74.3054 92.4692 74.3032C93.3203 74.3015 94.0735 74.3 94.0735 74.8791C94.0735 75.1563 94.0846 75.4642 94.0963 75.7907C94.1779 78.0577 94.2918 81.2209 90.9513 81.2209C87.0838 81.2209 75.9949 79.8115 74.0945 74.0714C72.4826 69.2025 71.8691 55.1856 71.7199 51.0426Z" fill="#e8e1e1" blush:color="Hair-500" blush:i="0.3.0.0.0.1"/></g></g><g id="Lower Body/Standing" blush:component="Lower Body/Standing" blush:defaultValue="Jogging" blush:width="300" blush:height="239" transform="translate(0 187) scale(1 1)" blush:i="0.3.0.1" blush:value="Baggy Pants" blush:viewBox="16.5 -0.6005025125627981 250.50000000000006 240.2010050251256"><g id="Lower Body/Standing/Baggy Pants" blush:viewBox="16.5 -0.6005025125627981 250.50000000000006 240.2010050251256" blush:i="0.3.0.1.0"><path id="SKIN" fill-rule="evenodd" clip-rule="evenodd" d="M134 0L183.082 124.227L216.001 229.25H229L176.674 0L134 0Z" fill="#915b3c" blush:color="Skin-500" blush:i="0.3.0.1.0.0"/><path id="SKIN" fill-rule="evenodd" clip-rule="evenodd" d="M124.117 0C123.594 43.6542 115.972 102.427 114.754 105.149C113.536 107.87 30.6758 174.358 30.6758 174.358L39.629 183.939C39.629 183.939 137.397 126.934 141.921 119.331C146.445 111.728 161.174 41.7631 173 0H124.117Z" fill="#915b3c" blush:color="Skin-500" blush:i="0.3.0.1.0.1"/><g id="Left [Shoe]" blush:i="0.3.0.1.0.2"><path id="shoe" fill-rule="evenodd" clip-rule="evenodd" d="M32.116 172.564C31.7884 171.44 30.604 170.771 29.5042 171.173C27.4981 171.906 24.5641 173.092 23.2642 174.183C21.1921 175.922 17.7961 179.948 17.7961 179.948C19.8131 182.352 54.0505 223.154 54.0505 223.154C54.0505 223.154 61.0315 220.166 58.4307 216.165C55.8299 212.164 54.1738 209.464 54.1738 209.464L46.2757 181.87C46.1206 181.328 45.549 181.022 45.012 181.192L40.7975 182.529C40.7975 182.529 36.4116 180.485 34.6494 178.384C33.5766 177.106 32.665 174.448 32.116 172.564Z" fill="#E4E4E4" blush:i="0.3.0.1.0.2.0"/></g><g id="Right {Shoe]" blush:i="0.3.0.1.0.3"><path id="shoe_2" fill-rule="evenodd" clip-rule="evenodd" d="M213.45 223.284C212.378 222.813 211.104 223.29 210.705 224.391C209.977 226.398 209 229.409 209 231.106C209 233.811 209.901 239 209.901 239C213.039 239 266.303 239 266.303 239C266.303 239 268.502 231.732 263.765 231.152C259.028 230.573 255.895 230.106 255.895 230.106L229.68 218.419C229.165 218.189 228.563 218.43 228.348 218.951L226.663 223.039C226.663 223.039 222.278 225.085 219.537 225.085C217.868 225.085 215.246 224.074 213.45 223.284Z" fill="#E4E4E4" blush:i="0.3.0.1.0.3.0"/></g><path id="Pant" fill-rule="evenodd" clip-rule="evenodd" d="M167 218.433L228.804 211.725L179 0H127.644L167 218.433Z" fill="#191847" blush:color="Bottom-700" blush:i="0.3.0.1.0.4"/><path id="Pant" fill-rule="evenodd" clip-rule="evenodd" d="M43.46 158.9L84 206.886C84 206.886 148.05 136.932 158.683 115.596C169.315 94.26 177.799 0 177.799 0H115.478C115.478 0 110.844 82.9258 109.231 86.7848C107.617 90.6437 43.46 158.9 43.46 158.9Z" fill="#393f82" blush:color="Bottom-500" blush:i="0.3.0.1.0.5"/></g></g><g id="Upper Body" blush:component="Upper Body" blush:defaultValue="Jacket" blush:width="256" blush:height="187" transform="translate(22 82) scale(1 1)" blush:i="0.3.0.2" blush:value="Jacket 2" blush:viewBox="1.2800000000000011 -0.6404109589041127 254.71999999999994 167.7876712328767"><g id="Upper Body/Jacket 2" blush:viewBox="1.2800000000000011 -0.6404109589041127 254.71999999999994 167.7876712328767" blush:i="0.3.0.2.0"><path id="SKIN" fill-rule="evenodd" clip-rule="evenodd" d="M234.235 61.7042L198 77.6171L209.57 92.4393L236.707 71.6329C250.262 69.1432 256.549 67.0043 255.566 65.2163C254.738 63.7087 253.197 63.6237 251.778 63.5454C250.672 63.4844 249.64 63.4275 249.076 62.7053C247.789 61.056 250.966 55.9611 254.188 51.2552C257.41 46.5492 254.39 46.7192 252.623 47.282C246.711 50.5716 240.582 55.379 234.235 61.7042ZM72 86.0658L51.5083 82C37.6109 118.63 29.3256 138.702 26.6523 142.218C24.692 144.796 12.6026 151.437 4.41982 154.984C1.13535 156.407 1.84055 159.183 2.80388 160.071C8.88024 165.672 14.5292 163.709 20.6783 161.572C22.4585 160.953 24.2806 160.32 26.1672 159.851C31.0502 158.639 32.5361 161.15 33.9404 163.523C35.1837 165.624 36.363 167.616 39.7793 166.821C39.6239 166.151 39.433 165.4 39.227 164.589C37.8952 159.349 35.9312 151.62 38.845 147.13C40.3404 144.826 51.3921 124.471 72 86.0658Z" fill="#915b3c" blush:color="Skin-500" blush:i="0.3.0.2.0.0"/><path id="Coat Back" fill-rule="evenodd" clip-rule="evenodd" d="M127.695 5.33206L136.342 3.84889C155.176 22.119 162.862 66.0125 175.414 71.8225C187.281 77.3157 204.104 72 224.1 64.8225L230.223 78.5046C212.055 98.1606 173.349 114.767 157.66 105.287C132.576 90.1298 126.786 35.9937 127.695 5.33206Z" fill="#77d692" blush:color="Top-700" blush:i="0.3.0.2.0.1"/><path id="Shirt" fill-rule="evenodd" clip-rule="evenodd" d="M90 114C90 114 142.008 114 166.511 114C170.008 114 169.349 108.952 168.843 106.404C163.011 77.0038 140.241 45.3115 140.241 3.46073L118.172 0C99.9175 29.3584 93.6048 65.5046 90 114Z" fill="#C7D1D9" blush:i="0.3.0.2.0.2"/><path id="Coat Front" fill-rule="evenodd" clip-rule="evenodd" d="M117 0H116.748C67.2466 30.5044 37.3306 77.7907 27 141.859L43.0374 145C53.6609 132.623 66.7714 112.368 82.3688 84.2332C77.5834 101.181 74.0896 118.563 73 135H141.872C155.205 101.305 125.486 0 125.486 0H120.731H117Z" fill="#a8e5ba" blush:color="Top-500" blush:i="0.3.0.2.0.3"/></g></g></g></g></g></svg>